<svg aria-hidden="true" style="position: absolute; width: 0; height: 0; overflow: hidden;" version="1.1" xmlns="http://www.w3.org/2000/svg" xmlns:xlink="http://www.w3.org/1999/xlink">
<defs>
<symbol id="icon-facebook" viewBox="0 0 32 32">
<path fill="#acabbf" style="fill: var(--color1, #acabbf)" d="M21.33 5.313h2.921v-5.088c-0.504-0.069-2.237-0.225-4.256-0.225-4.212 0-7.097 2.649-7.097 7.519v4.481h-4.648v5.688h4.648v14.312h5.699v-14.311h4.46l0.708-5.688h-5.169v-3.919c0.001-1.644 0.444-2.769 2.735-2.769z"></path>
</symbol>
<symbol id="icon-twitter" viewBox="0 0 32 32">
<path fill="#acabbf" style="fill: var(--color1, #acabbf)" d="M10.425 28.014c11.321 0 17.512-9.379 17.512-17.512 0-0.266-0.005-0.532-0.017-0.796 1.202-0.869 2.246-1.953 3.070-3.187-1.103 0.49-2.29 0.82-3.535 0.969 1.271-0.762 2.246-1.968 2.706-3.405-1.189 0.705-2.506 1.217-3.908 1.494-1.123-1.196-2.722-1.945-4.493-1.945-3.399 0-6.155 2.756-6.155 6.154 0 0.483 0.054 0.953 0.16 1.403-5.116-0.257-9.652-2.706-12.687-6.431-0.528 0.909-0.833 1.966-0.833 3.094 0 2.135 1.087 4.021 2.739 5.123-1.010-0.031-1.958-0.308-2.788-0.77-0.001 0.026-0.001 0.051-0.001 0.079 0 2.981 2.122 5.47 4.938 6.034-0.517 0.141-1.062 0.217-1.623 0.217-0.396 0-0.782-0.039-1.157-0.111 0.784 2.446 3.056 4.225 5.75 4.275-2.107 1.651-4.761 2.635-7.645 2.635-0.496 0-0.986-0.028-1.468-0.085 2.724 1.746 5.959 2.765 9.435 2.765z"></path>
</symbol>
<symbol id="icon-instagram" viewBox="0 0 32 32">
<path fill="#acabbf" style="fill: var(--color1, #acabbf)" d="M22 0h-12c-5.522 0-10 4.478-10 10v12c0 5.522 4.478 10 10 10h12c5.522 0 10-4.478 10-10v-12c0-5.522-4.478-10-10-10zM29 22c0 3.86-3.14 7-7 7h-12c-3.86 0-7-3.14-7-7v-12c0-3.86 3.14-7 7-7h12c3.86 0 7 3.14 7 7v12z"></path>
<path fill="#acabbf" style="fill: var(--color1, #acabbf)" d="M16 8c-4.418 0-8 3.582-8 8s3.582 8 8 8 8-3.582 8-8c0-4.418-3.582-8-8-8zM16 21c-2.756 0-5-2.244-5-5 0-2.758 2.244-5 5-5s5 2.242 5 5c0 2.756-2.244 5-5 5z"></path>
<path fill="#acabbf" style="fill: var(--color1, #acabbf)" d="M24.6 8.466c0.589 0 1.066-0.477 1.066-1.066s-0.477-1.066-1.066-1.066c-0.589 0-1.066 0.477-1.066 1.066s0.477 1.066 1.066 1.066z"></path>
</symbol>
</defs>
</svg>
